<svg id="Group_1355" data-name="Group 1355" xmlns="http://www.w3.org/2000/svg" xmlns:xlink="http://www.w3.org/1999/xlink" width="113.266" height="35" viewBox="0 0 113.266 35">
  <defs>
    <clipPath id="clip-path">
      <rect id="Rectangle_469" data-name="Rectangle 469" width="113.266" height="35" fill="none"></rect>
    </clipPath>
  </defs>
  <g id="Group_691" data-name="Group 691" clip-path="url(#clip-path)">
    <path id="Path_2427" data-name="Path 2427" d="M479.86,0a1.288,1.288,0,0,0-1.287,1.287V26.146a1.287,1.287,0,0,0,2.574,0V1.287A1.288,1.288,0,0,0,479.86,0" transform="translate(-431.581)" fill="#293C47"></path>
    <path id="Path_2428" data-name="Path 2428" d="M542.184,10.978a1.729,1.729,0,1,0,1.729,1.729,1.731,1.731,0,0,0-1.729-1.729" transform="translate(-487.387 -9.9)" fill="#00aa85"></path>
    <path id="Path_2429" data-name="Path 2429" d="M247.955,72.127h0a10.263,10.263,0,0,0-9.933,10.289v8.619a1.287,1.287,0,1,0,2.574,0V82.4a7.677,7.677,0,0,1,7.373-7.7,7.563,7.563,0,0,1,7.736,7.552v8.782a1.287,1.287,0,1,0,2.574,0V82.254a10.14,10.14,0,0,0-10.324-10.127" transform="translate(-214.65 -65.043)" fill="#293C47"></path>
    <path id="Path_2430" data-name="Path 2430" d="M857.8,7.081a10.111,10.111,0,0,0-7.562,3.4V1.286a1.287,1.287,0,0,0-2.574,0V17.244l.008.2v8.548a1.287,1.287,0,0,0,2.574,0l.008-8.757a7.551,7.551,0,1,1,15.1-.025v8.782a1.287,1.287,0,0,0,2.574,0l.008-8.757A10.154,10.154,0,0,0,857.8,7.081" transform="translate(-764.428 0.001)" fill="#293C47"></path>
    <path id="Path_2431" data-name="Path 2431" d="M1092.283,24.84a3.72,3.72,0,0,1-3.036-3.741V9.681h2.692a1.287,1.287,0,0,0,0-2.574h-2.692V1.287a1.287,1.287,0,0,0-2.574,0V21.1a6.23,6.23,0,0,0,4.952,6.222,1.288,1.288,0,0,0,.33.043,1.284,1.284,0,0,0,.328-2.525" transform="translate(-979.97)" fill="#293C47"></path>
    <path id="Path_2432" data-name="Path 2432" d="M10.275,73.953a10.354,10.354,0,0,0-7.266,3.108A9.513,9.513,0,0,0,0,83.545a1.289,1.289,0,0,0,1.287,1.286l18,.006a1.287,1.287,0,0,0,1.281-1.417,10.532,10.532,0,0,0-10.3-9.467m7.37,8.241a.162.162,0,0,1-.134.068l-14.535,0a.166.166,0,0,1-.136-.069.145.145,0,0,1-.023-.131,7.9,7.9,0,0,1,2-3.163,7.8,7.8,0,0,1,5.458-2.366,7.916,7.916,0,0,1,7.394,5.523.156.156,0,0,1-.024.143" transform="translate(0 -66.691)" fill="#293C47"></path>
    <path id="Path_2433" data-name="Path 2433" d="M23.559,196.977a1.3,1.3,0,0,0-1.208.846,7.984,7.984,0,0,1-7.282,5.218,7.713,7.713,0,0,1-7.3-5.186,1.292,1.292,0,0,0-1.219-.877,1.289,1.289,0,0,0-1.218,1.709,10.283,10.283,0,0,0,9.739,6.929,10.476,10.476,0,0,0,9.693-6.89,1.3,1.3,0,0,0-.149-1.2,1.267,1.267,0,0,0-1.054-.551" transform="translate(-4.742 -177.636)" fill="#293C47"></path>
    <path id="Path_2434" data-name="Path 2434" d="M545.651,71.554a1.324,1.324,0,0,0-1.287,1.354V90.674c0,.021.005.04.006.061s0,.014,0,.021a1.282,1.282,0,0,0,.849,1.125,1.236,1.236,0,0,0,.136.042l.057.013a1.181,1.181,0,0,0,.472,0l.057-.013a1.245,1.245,0,0,0,.136-.042,1.282,1.282,0,0,0,.849-1.125l0-.021c0-.021.006-.04.006-.061V72.908a1.324,1.324,0,0,0-1.287-1.354" transform="translate(-490.912 -64.528)" fill="#293C47"></path>
    <path id="Path_2435" data-name="Path 2435" d="M626.7,72.248a1.287,1.287,0,0,0-2.574,0v2.178l-.089-.1c-.1-.111-.2-.223-.311-.329l-.022-.022a10.159,10.159,0,0,0-17.3,6.382,10.076,10.076,0,0,0,2.657,7.7,10.525,10.525,0,0,0,7.39,3.3,9.721,9.721,0,0,0,7.19-2.968c.157-.157.312-.322.463-.494a11.214,11.214,0,0,1-1.449,5.152,7.922,7.922,0,0,1-6.305,3.377,7.77,7.77,0,0,1-5.631-2.425,1.32,1.32,0,0,0-1.733-.2,1.3,1.3,0,0,0-.526.923,1.276,1.276,0,0,0,.334.989,10.347,10.347,0,0,0,7.557,3.287c5.835,0,8.914-4.806,9.533-6.49.053-.143.281-.829.417-1.4a14.187,14.187,0,0,0,.367-2.989c.044-2.063.037-2.138.034-2.169Zm-3.167,1.9h0Zm.562,7.717a7.592,7.592,0,1,1-8.253-8.252q.343-.03.683-.03a7.6,7.6,0,0,1,7.57,8.283" transform="translate(-546.829 -63.993)" fill="#293C47"></path>
  </g>
</svg>