<svg xmlns="http://www.w3.org/2000/svg" viewBox="0 0 40 40" width="40" height="40">
<path id="Path_2424" data-name="Path 2424" d="M18.624,39.744l-.295,0h-.011a17.534,17.534,0,0,1-11.779-4.7,21.506,21.506,0,0,1-5.76-9.871,21.285,21.285,0,0,1,0-11.427,25.03,25.03,0,0,1,4.362-8.6A15.38,15.38,0,0,1,8.66,1.925,11.57,11.57,0,0,1,13.094.18,16.278,16.278,0,0,1,19.187.44l.009,0A39.2,39.2,0,0,1,32.3,5.873c4.4,3.03,6.942,6.85,7.553,11.352a19.776,19.776,0,0,1-8.069,18.361,22.969,22.969,0,0,1-13.163,4.159M15.287.667a12.12,12.12,0,0,0-2.081.171,12.3,12.3,0,0,0-7.544,4.73,24.356,24.356,0,0,0-4.239,8.36,20.618,20.618,0,0,0,0,11.066A20.837,20.837,0,0,0,7,34.56,16.86,16.86,0,0,0,18.33,39.075h.01l.286,0A22.288,22.288,0,0,0,31.4,35.042a19.093,19.093,0,0,0,7.8-17.725c-.585-4.311-3.031-7.976-7.271-10.9a38.539,38.539,0,0,0-12.879-5.33A18.335,18.335,0,0,0,15.287.667" transform="translate(0.001 0)" fill="#00aa85"></path>
<path id="Path_2425" data-name="Path 2425" d="M44.507,81.844h-.153a18.549,18.549,0,0,1-8.421-2.383,17.2,17.2,0,0,1-5.315-4.327,16.656,16.656,0,0,1-3.028-5.724,19.958,19.958,0,0,1,.8-13.2c.9-2.233,2.13-4.7,4.394-6.081a5.486,5.486,0,0,1,3.569-.7,8.715,8.715,0,0,1,3.4,1.235l.008,0a42.687,42.687,0,0,1,7,6.125c3,3.037,6.1,6.178,10.207,7.685l.017.007a9.082,9.082,0,0,1,1.851,1,5.153,5.153,0,0,1,1.711,2.163,5.215,5.215,0,0,1,.38,1.461v.011a9.13,9.13,0,0,1-2.719,6.98,18.11,18.11,0,0,1-6.5,4.252,19.992,19.992,0,0,1-7.207,1.493m-.137-.668h.007a19.2,19.2,0,0,0,7.089-1.445,17.443,17.443,0,0,0,6.261-4.089,9.964,9.964,0,0,0,1.983-3,7.563,7.563,0,0,0,.559-3.466,4.555,4.555,0,0,0-.332-1.27,4.487,4.487,0,0,0-1.492-1.885,8.472,8.472,0,0,0-1.71-.922c-4.238-1.56-7.393-4.752-10.443-7.839a42.212,42.212,0,0,0-6.886-6.03,8.042,8.042,0,0,0-3.136-1.141,4.834,4.834,0,0,0-3.144.609c-2.1,1.276-3.259,3.628-4.121,5.76a19.291,19.291,0,0,0-.778,12.759,15.994,15.994,0,0,0,2.907,5.5,16.541,16.541,0,0,0,5.113,4.16l0,0a17.883,17.883,0,0,0,8.118,2.3" transform="translate(-24.175 -44.509)" fill="#00aa85"></path>
<path id="Path_2426" data-name="Path 2426" d="M53.9,75.381q-.217,0-.434-.007h-.112a15.682,15.682,0,0,1-14.436-21.7A15.625,15.625,0,0,1,51.6,44a15.548,15.548,0,0,1,7.1.782A16.044,16.044,0,0,1,67.945,53.4a14.045,14.045,0,0,1,1.216,7.607,16.889,16.889,0,0,1-8.186,12.447A14.187,14.187,0,0,1,53.9,75.381m-.436-.674h.02a13.479,13.479,0,0,0,7.158-1.832A16.223,16.223,0,0,0,68.5,60.93a13.377,13.377,0,0,0-1.158-7.25l0-.009a15.377,15.377,0,0,0-8.863-8.258,15.011,15.011,0,0,0-18.94,8.521,14.83,14.83,0,0,0-.808,8.939v.006A15.354,15.354,0,0,0,53.353,74.707h.11Z" transform="translate(-33.987 -39.563)" fill="#00aa85"></path>
</svg>